<?xml version="1.0" encoding="UTF-8" standalone="no"?>
<svg width="625px" height="165px" viewBox="0 0 625 165" version="1.1" xmlns="http://www.w3.org/2000/svg" xmlns:xlink="http://www.w3.org/1999/xlink">
    <!-- Generator: Sketch 39 (31667) - http://www.bohemiancoding.com/sketch -->
    <title>CWF</title>
    <desc>Created with Sketch.</desc>
    <defs></defs>
    <g id="Page-1" stroke="none" stroke-width="1" fill="none" fill-rule="evenodd">
        <g id="CWF" fill="#ffffff">
            <g id="Bar" transform="translate(0.000000, 54.000000)">
                <rect id="Rectangle" x="119" y="45" width="388" height="21"></rect>
                <g id="Group" transform="translate(511.000000, 0.000000)">
                    <rect id="Rectangle-Copy" transform="translate(9.500000, 56.000000) rotate(-270.000000) translate(-9.500000, -56.000000) " x="-34" y="47" width="87" height="18"></rect>
                    <rect id="Rectangle-Copy-2" transform="translate(61.000000, 55.500000) rotate(-270.000000) translate(-61.000000, -55.500000) " x="17.5" y="46.5" width="87" height="18"></rect>
                    <rect id="Rectangle-Copy-4" transform="translate(94.000000, 55.500000) rotate(-270.000000) translate(-94.000000, -55.500000) " x="83.5" y="35.5" width="21" height="40"></rect>
                    <rect id="Rectangle-Copy-3" transform="translate(35.000000, 55.500000) rotate(-270.000000) translate(-35.000000, -55.500000) " x="-20.5" y="43.5" width="111" height="24"></rect>
                </g>
                <g id="Group" transform="translate(57.000000, 55.500000) rotate(-180.000000) translate(-57.000000, -55.500000) ">
                    <rect id="Rectangle-Copy" transform="translate(9.500000, 56.000000) rotate(-270.000000) translate(-9.500000, -56.000000) " x="-34" y="47" width="87" height="18"></rect>
                    <rect id="Rectangle-Copy-2" transform="translate(61.000000, 55.500000) rotate(-270.000000) translate(-61.000000, -55.500000) " x="17.5" y="46.5" width="87" height="18"></rect>
                    <rect id="Rectangle-Copy-4" transform="translate(94.000000, 55.500000) rotate(-270.000000) translate(-94.000000, -55.500000) " x="83.5" y="35.5" width="21" height="40"></rect>
                    <rect id="Rectangle-Copy-3" transform="translate(35.000000, 55.500000) rotate(-270.000000) translate(-35.000000, -55.500000) " x="-20.5" y="43.5" width="111" height="24"></rect>
                </g>
            </g>
            <path d="M243.90757,0.29899074 C249.687818,0.72886335 260.963701,2.67554297 260.963701,2.67554297 L254.035166,25.7446405 C254.035166,25.7446405 249.276278,24.1624621 243.448046,23.3339616 C237.619814,22.5054611 232.778208,22.4313277 229.214258,22.824093 C225.650309,23.2168583 222.120687,24.1615926 217.704273,25.7446404 C213.287859,27.3276881 208.56238,30.5145532 206.384121,32.2551212 C204.205862,33.9956893 200.128287,38.3309673 198.280527,41.4706384 C196.432768,44.6103095 193.692938,49.9493636 193.181475,53.4337007 C192.670012,56.9180378 193.181475,62.5717696 194.53615,65.1214983 C195.890825,67.6712269 200.061022,70.1714133 201.373305,70.8676836 C202.685587,71.5639538 208.195288,72.6557883 214.249056,72.317093 C220.302824,71.9783977 233.757117,70.2425715 237.787653,69.153824 L226.745112,92.7155458 C226.745112,92.7155458 217.142348,94.0497999 212.38723,94.3103213 C207.632113,94.5708427 201.373304,94.8049913 196.432768,94.8049928 C191.492232,94.8049944 187.692859,94.0097032 183.223571,92.715542 C178.754282,91.4213808 174.642699,90.3044038 170.071804,86.4456667 C165.50091,82.5869296 162.694822,77.2746339 161.185223,71.747539 C159.675625,66.220444 161.516984,57.5076394 161.99971,55.023356 C162.482436,52.5390726 164.914904,45.1676278 169.51644,36.9940962 C174.117976,28.8205645 177.761671,25.1099038 181.752373,21.373968 C185.743075,17.6380322 191.899466,12.5265699 200.486618,8.28987803 C209.073771,4.0531862 221.277338,1.47500005 225.964831,0.838227812 C230.652323,0.201455572 238.127321,-0.13088187 243.90757,0.29899074 Z M382.179637,2.32570553 L410.252147,2.32570553 L350.011577,92.9039993 L314.574413,92.9039993 L321.733798,44.9519997 L292.955814,92.9039993 L258.472026,92.904 L269.710206,2.32570553 L297.931812,2.32570553 L289.675941,61.1270666 L324.003459,2.32570553 L355.28783,2.32570553 L343.428607,63.6345816 L382.179637,2.32570553 Z M420.469935,2.53748274 L491.510664,2.53748274 L483.341841,23.8663154 L443.352621,23.8663154 L438.567988,36.1954341 L471.627386,36.1954341 L464.110731,57.7451739 L430.039091,57.7451739 L417.080744,92.9039989 L385.625311,92.904 L420.469935,2.53748274 Z"></path>
        </g>
    </g>
</svg>