<?xml version="1.0" encoding="UTF-8" standalone="no"?>
<svg width="127px" height="158px" viewBox="0 0 127 158" version="1.1" xmlns="http://www.w3.org/2000/svg" xmlns:xlink="http://www.w3.org/1999/xlink">
    <!-- Generator: Sketch 3.8.3 (29802) - http://www.bohemiancoding.com/sketch -->
    <title>philo</title>
    <desc>Created with Sketch.</desc>
    <defs></defs>
    <g id="Page-1" stroke="none" stroke-width="1" fill="none" fill-rule="evenodd">
        <g id="philo" fill="#FFFFFF">
            <g id="Group">
                <path d="M52.172,41.201 C46.452,42.708 46.721,51.154 51.875,52.717 C61.775,55.717 62.494,38.486 52.172,41.201 L52.172,41.201 Z" id="Shape"></path>
                <path d="M35.343,41.201 C31.788,42.05 30.461,44.604 30.914,47.992 C31.824,54.772 43.718,54.618 43.02,46.221 C42.706,42.447 39.724,40.155 35.343,41.201 L35.343,41.201 Z" id="Shape"></path>
                <path d="M126.147,82.569 C126.393,80.441 124.023,77.912 122.9,76.368 C121.321,74.196 119.805,72.231 118.768,70.757 C116.431,67.44 112.476,61.835 112.567,57.472 C112.616,55.077 114.086,53.476 114.339,51.567 C115.212,44.983 112.919,36.839 110.5,31.194 C102.004,11.39 79.354,-2.866 50.27,0.491 C24.154,3.503 5.271,17.432 0.963,41.825 C-0.269,48.806 -0.145,56.143 0.374,62.787 C1.461,76.704 6.731,86.618 13.07,95.558 C16,99.691 20.844,104.698 21.632,109.73 C22.377,114.495 21.069,119.309 19.861,123.312 C15.93,136.344 8.614,142.292 6.87,157.265 L79.205,157.265 C78.957,151.521 75.085,148.122 74.479,142.207 C73.685,134.437 76.429,125.663 82.747,123.903 C92.236,121.259 109.067,129.497 113.453,119.473 C113.835,115.252 112.372,112.672 113.159,109.139 C113.744,106.511 116.016,105.333 116.113,103.234 C116.183,101.678 115.648,100.658 114.342,99.692 C116.303,98.102 118.175,96.954 118.179,94.379 C118.184,92.203 115.825,90.744 116.408,88.178 C119.514,86.14 125.688,86.578 126.147,82.569 L126.147,82.569 Z M79.928,61.278 C76.555,71.376 67.792,80.341 55.125,81.06 C44.314,81.671 35.152,75.802 30.621,68.658 C11.056,73.582 2.654,48.314 16.155,38.839 C17.843,37.657 19.887,37.118 22.06,36.183 C23.305,23.073 32.745,12.744 46.861,12.562 C55.05,12.457 61.345,16.433 66.048,21.125 C81.554,15.077 96.586,25.038 96.458,40.611 C96.37,51.579 89.307,58.322 79.928,61.278 L79.928,61.278 Z" id="Shape"></path>
                <path d="M69.004,41.202 C66.709,41.817 65.135,43.898 64.868,45.039 C62.956,53.206 74.047,55.378 76.381,49.469 C78.611,43.831 73.639,39.956 69.004,41.202 L69.004,41.202 Z" id="Shape"></path>
            </g>
        </g>
    </g>
</svg>